<svg width="2340" height="514" viewBox="0 0 2340 514" fill="none" xmlns="http://www.w3.org/2000/svg">
<path d="M505.906 393.562L520.32 276.244L477.878 278.646L486.687 206.573H663.665L654.856 278.646L613.214 276.244L598.799 393.562H505.906ZM898.413 312.68H765.88C765.479 315.083 765.479 317.485 765.479 319.487C765.479 334.702 773.488 344.712 785.9 344.712C795.51 344.712 801.516 339.908 805.92 328.696H894.81C887.602 349.918 882.397 358.326 868.783 370.338C847.162 389.157 819.133 398.767 786.701 398.767C720.234 398.767 674.588 359.527 674.588 301.869C674.588 241.409 724.238 195.763 789.904 195.763C851.566 195.763 900.015 238.606 900.015 293.461C900.015 297.865 899.214 304.272 898.413 312.68ZM792.306 249.417C779.494 249.417 772.286 257.024 769.483 274.242H812.727C812.327 257.425 805.92 249.417 792.306 249.417ZM1178.52 206.573L1155.69 393.562H1062.8L1077.62 273.841H1047.99L1040.78 325.893C1038.38 344.312 1030.77 359.928 1015.95 373.141C992.329 394.362 967.104 395.964 945.883 395.964C934.671 395.964 924.661 395.163 913.05 393.562L921.458 325.493C933.47 327.895 945.482 325.493 952.289 319.487C961.899 311.479 964.301 295.062 965.502 283.451L974.311 206.573H1178.52ZM1421.6 312.68H1289.06C1288.66 315.083 1288.66 317.485 1288.66 319.487C1288.66 334.702 1296.67 344.712 1309.08 344.712C1318.69 344.712 1324.7 339.908 1329.1 328.696H1417.99C1410.78 349.918 1405.58 358.326 1391.97 370.338C1370.34 389.157 1342.32 398.767 1309.88 398.767C1243.42 398.767 1197.77 359.527 1197.77 301.869C1197.77 241.409 1247.42 195.763 1313.09 195.763C1374.75 195.763 1423.2 238.606 1423.2 293.461C1423.2 297.865 1422.4 304.272 1421.6 312.68ZM1315.49 249.417C1302.68 249.417 1295.47 257.024 1292.67 274.242H1335.91C1335.51 257.425 1329.1 249.417 1315.49 249.417ZM1558.1 196.163C1576.52 196.163 1587.73 198.165 1613.76 206.573L1602.15 285.052C1592.14 273.441 1582.53 268.235 1569.32 268.235C1551.7 268.235 1540.09 281.048 1540.09 300.268C1540.09 317.485 1550.5 327.895 1567.31 327.895C1578.93 327.895 1588.13 323.891 1598.55 314.682L1584.93 391.56C1564.91 397.566 1556.9 398.767 1542.89 398.767C1487.63 398.767 1448.79 360.328 1448.79 305.473C1448.79 240.207 1492.84 196.163 1558.1 196.163ZM1774.13 206.573H1866.22L1843 393.562H1751.31C1754.11 380.749 1755.31 377.545 1761.32 360.328L1758.52 359.127C1742.5 387.155 1725.68 398.767 1700.86 398.767C1658.82 398.767 1622.78 358.726 1622.78 311.479C1622.78 252.219 1666.82 200.167 1716.47 200.167C1746.1 200.167 1762.12 211.378 1772.93 240.207L1776.13 239.006C1774.53 225.793 1774.13 220.988 1774.13 210.578V206.573ZM1739.3 327.895C1754.11 327.895 1765.32 315.083 1765.32 298.266C1765.32 284.252 1756.11 273.841 1743.3 273.841C1728.89 273.841 1716.47 287.855 1716.47 304.272C1716.47 317.885 1726.08 327.895 1739.3 327.895ZM1904.8 206.573H1996.09L1988.08 265.032C1986.48 278.246 1983.68 289.056 1978.07 301.469L1982.48 303.071C1986.48 293.861 1990.09 287.855 1995.69 279.447L2045.34 206.573H2136.23L2113.41 393.562H2022.12L2029.73 337.505C2031.33 325.493 2033.33 314.682 2037.33 300.668L2033.33 299.066C2026.12 313.881 2021.72 319.487 2016.51 327.095L1972.87 393.562H1881.98L1904.8 206.573ZM2058.96 115.282L2112.61 135.702C2104.6 156.123 2090.99 166.934 2080.58 172.94C2063.76 182.549 2044.54 184.151 2029.33 184.151C2016.51 184.151 1992.09 182.95 1973.67 172.539C1963.26 166.533 1950.45 155.322 1944.44 135.702L2002.5 115.282C2003.3 120.887 2005.7 129.296 2010.11 133.7C2015.71 139.306 2024.12 140.107 2028.52 140.107C2034.93 140.107 2042.14 139.706 2048.54 133.7C2053.35 129.296 2057.35 121.688 2058.96 115.282ZM2181.42 393.562L2195.83 276.244L2153.39 278.646L2162.2 206.573H2339.18L2330.37 278.646L2288.73 276.244L2274.31 393.562H2181.42Z" fill="#131313"/>
<path d="M10.1438 286.594C11.0082 286.158 11.8638 285.747 12.7194 285.354C27.3698 278.553 42.221 272.206 57.0635 265.85C57.8754 265.85 59.2112 264.933 59.9708 264.61C61.1146 264.121 62.2584 263.641 63.4021 263.143C65.6023 262.2 67.8024 261.266 70.0026 260.323C74.403 258.437 78.8033 256.551 83.2124 254.674C92.0131 250.911 100.814 247.148 109.615 243.376C127.216 235.85 144.817 228.316 162.419 220.79C180.02 213.264 197.63 205.729 215.232 198.194C232.833 190.668 250.435 183.142 268.036 175.607C285.646 168.073 303.248 160.547 320.849 153.021C324.761 151.344 328.995 148.821 333.186 148.097C336.704 147.468 340.144 146.246 343.68 145.573C350.412 144.299 357.824 143.766 364.259 146.56C366.494 147.52 368.528 148.891 370.257 150.602C378.421 158.696 377.277 171.958 375.548 183.334C363.499 262.584 351.46 341.843 339.42 421.102C337.77 431.981 335.535 443.898 326.943 450.77C319.688 456.584 309.342 457.248 300.375 454.768C291.426 452.289 283.498 447.076 275.754 441.943C243.555 420.622 211.364 399.31 179.173 377.989C171.516 372.925 162.995 366.316 163.091 357.14C163.135 351.604 166.435 346.689 169.805 342.297C197.77 305.811 238.15 280.727 268.176 245.926C272.402 241.028 275.745 232.149 269.922 229.329C266.473 227.644 262.483 229.931 259.331 232.122C219.65 259.686 179.968 287.258 140.286 314.83C127.338 323.823 113.753 333.077 98.151 335.295C84.1903 337.268 70.1423 333.383 56.6182 329.41C45.2943 326.084 33.9878 322.662 22.725 319.152C16.7443 317.283 10.5628 315.284 5.92674 311.067C1.29938 306.85 -1.34607 299.769 1.43035 294.146C3.17652 290.628 6.58163 288.402 10.1438 286.594Z" fill="url(#paint0_linear_2019_1260)"/>
<defs>
<linearGradient id="paint0_linear_2019_1260" x1="0.297852" y1="300.333" x2="376.787" y2="300.333" gradientUnits="userSpaceOnUse">
<stop stop-color="#078EF7"/>
<stop offset="0.326923" stop-color="#BB61F9"/>
<stop offset="0.620192" stop-color="#DF4C9D"/>
<stop offset="0.822115" stop-color="#F2445B"/>
<stop offset="0.9999" stop-color="#F45409"/>
</linearGradient>
</defs>
</svg>
