<svg width="2340" height="514" viewBox="0 0 2340 514" fill="none" xmlns="http://www.w3.org/2000/svg">
<path d="M505.906 393.5L520.32 276.182L477.878 278.584L486.687 206.512H663.665L654.856 278.584L613.214 276.182L598.799 393.5H505.906ZM898.413 312.619H765.88C765.479 315.021 765.479 317.423 765.479 319.426C765.479 334.641 773.488 344.651 785.9 344.651C795.51 344.651 801.516 339.846 805.92 328.635H894.81C887.602 349.856 882.397 358.265 868.783 370.277C847.162 389.096 819.133 398.705 786.701 398.705C720.234 398.705 674.588 359.466 674.588 301.808C674.588 241.347 724.238 195.701 789.904 195.701C851.566 195.701 900.015 238.544 900.015 293.399C900.015 297.804 899.214 304.21 898.413 312.619ZM792.306 249.355C779.494 249.355 772.286 256.963 769.483 274.18H812.727C812.327 257.363 805.92 249.355 792.306 249.355ZM1178.52 206.512L1155.69 393.5H1062.8L1077.62 273.78H1047.99L1040.78 325.832C1038.38 344.25 1030.77 359.866 1015.95 373.079C992.329 394.301 967.104 395.902 945.883 395.902C934.671 395.902 924.661 395.102 913.05 393.5L921.458 325.432C933.47 327.834 945.482 325.432 952.289 319.426C961.899 311.417 964.301 295.001 965.502 283.389L974.311 206.512H1178.52ZM1421.6 312.619H1289.06C1288.66 315.021 1288.66 317.423 1288.66 319.426C1288.66 334.641 1296.67 344.651 1309.08 344.651C1318.69 344.651 1324.7 339.846 1329.1 328.635H1417.99C1410.78 349.856 1405.58 358.265 1391.97 370.277C1370.34 389.096 1342.32 398.705 1309.88 398.705C1243.42 398.705 1197.77 359.466 1197.77 301.808C1197.77 241.347 1247.42 195.701 1313.09 195.701C1374.75 195.701 1423.2 238.544 1423.2 293.399C1423.2 297.804 1422.4 304.21 1421.6 312.619ZM1315.49 249.355C1302.68 249.355 1295.47 256.963 1292.67 274.18H1335.91C1335.51 257.363 1329.1 249.355 1315.49 249.355ZM1558.1 196.101C1576.52 196.101 1587.73 198.103 1613.76 206.512L1602.15 284.991C1592.14 273.379 1582.53 268.174 1569.32 268.174C1551.7 268.174 1540.09 280.987 1540.09 300.206C1540.09 317.423 1550.5 327.834 1567.31 327.834C1578.93 327.834 1588.13 323.83 1598.55 314.621L1584.93 391.498C1564.91 397.504 1556.9 398.705 1542.89 398.705C1487.63 398.705 1448.79 360.267 1448.79 305.411C1448.79 240.146 1492.84 196.101 1558.1 196.101ZM1774.13 206.512H1866.22L1843 393.5H1751.31C1754.11 380.687 1755.31 377.484 1761.32 360.267L1758.52 359.065C1742.5 387.094 1725.68 398.705 1700.86 398.705C1658.82 398.705 1622.78 358.665 1622.78 311.417C1622.78 252.158 1666.82 200.106 1716.47 200.106C1746.1 200.106 1762.12 211.317 1772.93 240.146L1776.13 238.945C1774.53 225.731 1774.13 220.926 1774.13 210.516V206.512ZM1739.3 327.834C1754.11 327.834 1765.32 315.021 1765.32 298.204C1765.32 284.19 1756.11 273.78 1743.3 273.78C1728.89 273.78 1716.47 287.794 1716.47 304.21C1716.47 317.824 1726.08 327.834 1739.3 327.834ZM1904.8 206.512H1996.09L1988.08 264.971C1986.48 278.184 1983.68 288.995 1978.07 301.407L1982.48 303.009C1986.48 293.8 1990.09 287.794 1995.69 279.385L2045.34 206.512H2136.23L2113.41 393.5H2022.12L2029.73 337.444C2031.33 325.432 2033.33 314.621 2037.33 300.607L2033.33 299.005C2026.12 313.82 2021.72 319.426 2016.51 327.033L1972.87 393.5H1881.98L1904.8 206.512ZM2058.96 115.22L2112.61 135.641C2104.6 156.061 2090.99 166.872 2080.58 172.878C2063.76 182.488 2044.54 184.089 2029.33 184.089C2016.51 184.089 1992.09 182.888 1973.67 172.478C1963.26 166.472 1950.45 155.26 1944.44 135.641L2002.5 115.22C2003.3 120.826 2005.7 129.234 2010.11 133.639C2015.71 139.244 2024.12 140.045 2028.52 140.045C2034.93 140.045 2042.14 139.645 2048.54 133.639C2053.35 129.234 2057.35 121.627 2058.96 115.22ZM2181.42 393.5L2195.83 276.182L2153.39 278.584L2162.2 206.512H2339.18L2330.37 278.584L2288.73 276.182L2274.31 393.5H2181.42Z" fill="white"/>
<path d="M10.1438 286.533C11.0082 286.096 11.8638 285.686 12.7194 285.293C27.3698 278.492 42.221 272.144 57.0635 265.788C57.8754 265.788 59.2112 264.871 59.9708 264.548C61.1146 264.06 62.2584 263.579 63.4021 263.082C65.6023 262.139 67.8024 261.205 70.0026 260.262C74.403 258.376 78.8033 256.49 83.2124 254.613C92.0131 250.85 100.814 247.087 109.615 243.315C127.216 235.789 144.817 228.254 162.419 220.728C180.02 213.202 197.63 205.667 215.232 198.133C232.833 190.607 250.435 183.081 268.036 175.546C285.646 168.011 303.248 160.485 320.849 152.959C324.761 151.283 328.995 148.76 333.186 148.035C336.704 147.406 340.144 146.184 343.68 145.512C350.412 144.237 357.824 143.705 364.259 146.498C366.494 147.459 368.528 148.83 370.257 150.541C378.421 158.634 377.277 171.896 375.548 183.273C363.499 262.523 351.46 341.782 339.42 421.041C337.77 431.919 335.535 443.837 326.943 450.708C319.688 456.523 309.342 457.186 300.375 454.707C291.426 452.227 283.498 447.015 275.754 441.881C243.555 420.56 211.364 399.248 179.173 377.927C171.516 372.864 162.995 366.254 163.091 357.078C163.135 351.543 166.435 346.627 169.805 342.236C197.77 305.749 238.15 280.666 268.176 245.864C272.402 240.966 275.745 232.087 269.922 229.267C266.473 227.582 262.483 229.869 259.331 232.061C219.65 259.624 179.968 287.196 140.286 314.768C127.338 323.761 113.753 333.016 98.151 335.234C84.1903 337.207 70.1423 333.322 56.6182 329.349C45.2943 326.023 33.9878 322.6 22.725 319.09C16.7443 317.222 10.5628 315.222 5.92674 311.005C1.29938 306.788 -1.34607 299.708 1.43035 294.085C3.17652 290.566 6.58163 288.34 10.1438 286.533Z" fill="url(#paint0_linear_2001_1286)"/>
<defs>
<linearGradient id="paint0_linear_2001_1286" x1="0.297852" y1="300.272" x2="376.787" y2="300.272" gradientUnits="userSpaceOnUse">
<stop stop-color="#078EF7"/>
<stop offset="0.326923" stop-color="#BB61F9"/>
<stop offset="0.620192" stop-color="#DF4C9D"/>
<stop offset="0.822115" stop-color="#F2445B"/>
<stop offset="0.9999" stop-color="#F45409"/>
</linearGradient>
</defs>
</svg>
